<?xml version="1.0" encoding="UTF-8"?>
<svg width="12px" height="12px" viewBox="0 0 12 12" version="1.1" xmlns="http://www.w3.org/2000/svg" xmlns:xlink="http://www.w3.org/1999/xlink">
    <title>icon/time</title>
    <g id="页面-1" stroke="none" stroke-width="1" fill="none" fill-rule="evenodd">
        <g id="列表页-未登录" transform="translate(-28.000000, -340.000000)" fill="#C9CDD4" fill-rule="nonzero">
            <g id="618" transform="translate(12.000000, 100.000000)">
                <g id="内容" transform="translate(16.000000, 182.000000)">
                    <g id="时间_time" transform="translate(0.000000, 58.000000)">
                        <path d="M6,0.5 C9.03756737,0.5 11.5,2.96243263 11.5,6 C11.5,9.03756737 9.03756737,11.5 6,11.5 C2.96243263,11.5 0.5,9.03756737 0.5,6 C0.5,2.96243263 2.96243263,0.5 6,0.5 Z M6,1.5 C3.51471737,1.5 1.5,3.51471737 1.5,6 C1.5,8.48528263 3.51471737,10.5 6,10.5 C8.48528263,10.5 10.5,8.48528263 10.5,6 C10.5,3.51471737 8.48528263,1.5 6,1.5 Z M6.00214996,2.500025 C6.25856788,2.500025 6.46988425,2.69309184 6.49874196,2.94176406 L6.5021,3.00007496 L6.5015,5.795 L8.47520339,7.76852161 C8.65544537,7.94876359 8.66931014,8.23237912 8.51679769,8.42852472 L8.47520339,8.47562839 C8.29496141,8.65587037 8.01134588,8.66973514 7.81520028,8.51722269 L7.76809661,8.47562839 L5.64824661,6.35577839 C5.57009625,6.27762803 5.52048825,6.17627147 5.50613077,6.06790589 L5.5018,6.00217504 L5.5021,2.99997504 C5.5021276,2.72383266 5.72600759,2.500025 6.00214996,2.500025 Z" id="形状结合"></path>
                    </g>
                </g>
            </g>
        </g>
    </g>
</svg>