<?xml version="1.0" encoding="UTF-8"?>
<svg width="20px" height="20px" viewBox="0 0 20 20" version="1.1" xmlns="http://www.w3.org/2000/svg" xmlns:xlink="http://www.w3.org/1999/xlink">
    <title>icon/preview-open</title>
    <defs>
        <rect id="path-1" x="0" y="0" width="20" height="20"></rect>
    </defs>
    <g id="页面-1" stroke="none" stroke-width="1" fill="none" fill-rule="evenodd">
        <g id="登录-看密码" transform="translate(-291.000000, -297.000000)">
            <g id="编组" transform="translate(291.000000, 297.000000)">
                <mask id="mask-2" fill="white">
                    <use xlink:href="#path-1"></use>
                </mask>
                <use id="蒙版" fill="#86909C" opacity="0" xlink:href="#path-1"></use>
                <g id="预览-打开_preview-open" mask="url(#mask-2)" fill="#86909C" fill-rule="nonzero">
                    <g transform="translate(0.833333, 4.166667)" id="形状结合">
                        <path d="M9.16666667,0 C11.407717,0 13.5702747,1.01676309 15.5910276,2.69174989 C16.284243,3.26635086 16.9118626,3.88025937 17.4646594,4.49474822 L17.4646594,4.49474822 L17.6971213,4.75808185 L17.9759081,5.08988252 L18.1678856,5.33496268 C18.3884826,5.63059318 18.3884826,6.03607349 18.1678856,6.33170398 L18.1678856,6.33170398 L17.9759081,6.57678414 L17.6971213,6.90858481 L17.4646594,7.17191844 C16.9118626,7.7864073 16.284243,8.40031581 15.5910276,8.97491678 C13.5702747,10.6499036 11.407717,11.6666667 9.16666667,11.6666667 C6.9256163,11.6666667 4.76305865,10.6499036 2.74230572,8.97491678 C2.04909035,8.40031581 1.42147071,7.7864073 0.86867397,7.17191844 L0.86867397,7.17191844 L0.636211989,6.90858481 L0.357425195,6.57678414 L0.165447759,6.33170398 C-0.0551492531,6.03607349 -0.0551492531,5.63059318 0.165447759,5.33496268 L0.165447759,5.33496268 L0.357425195,5.08988252 L0.636211989,4.75808185 L0.86867397,4.49474822 C1.42147071,3.88025937 2.04909035,3.26635086 2.74230572,2.69174989 C4.76305865,1.01676309 6.9256163,0 9.16666667,0 Z M9.16666667,1.66666667 C7.38063891,1.66666667 5.55525125,2.52490358 3.80591303,3.97491678 C3.1795965,4.49406581 2.60916829,5.0520323 2.10774139,5.60941844 L2.10774139,5.60941844 L1.90916667,5.83333333 L2.10774139,6.05724822 C2.60916829,6.61463437 3.1795965,7.17260086 3.80591303,7.69174989 C5.55525125,9.14176309 7.38063891,10 9.16666667,10 C10.9526944,10 12.7780821,9.14176309 14.5274203,7.69174989 C15.1537368,7.17260086 15.724165,6.61463437 16.2255919,6.05724822 L16.2255919,6.05724822 L16.4233333,5.8325 L16.2255919,5.60941844 C15.724165,5.0520323 15.1537368,4.49406581 14.5274203,3.97491678 C12.7780821,2.52490358 10.9526944,1.66666667 9.16666667,1.66666667 Z M9.16666667,2.91666667 C10.7774873,2.91666667 12.0833333,4.22251271 12.0833333,5.83333333 C12.0833333,7.44415396 10.7774873,8.75 9.16666667,8.75 C7.55584604,8.75 6.25,7.44415396 6.25,5.83333333 C6.25,4.22251271 7.55584604,2.91666667 9.16666667,2.91666667 Z M9.16666667,4.58333333 C8.47632062,4.58333333 7.91666667,5.14298729 7.91666667,5.83333333 C7.91666667,6.52367938 8.47632062,7.08333333 9.16666667,7.08333333 C9.85701271,7.08333333 10.4166667,6.52367938 10.4166667,5.83333333 C10.4166667,5.14298729 9.85701271,4.58333333 9.16666667,4.58333333 Z"></path>
                    </g>
                </g>
            </g>
        </g>
    </g>
</svg>