<?xml version="1.0" encoding="UTF-8"?>
<svg width="20px" height="20px" viewBox="0 0 20 20" version="1.1" xmlns="http://www.w3.org/2000/svg" xmlns:xlink="http://www.w3.org/1999/xlink">
    <title>icon/preview-close</title>
    <defs>
        <rect id="path-1" x="0" y="0" width="20" height="20"></rect>
    </defs>
    <g id="页面-1" stroke="none" stroke-width="1" fill="none" fill-rule="evenodd">
        <g id="登录" transform="translate(-291.000000, -297.000000)">
            <g id="编组" transform="translate(291.000000, 297.000000)">
                <mask id="mask-2" fill="white">
                    <use xlink:href="#path-1"></use>
                </mask>
                <use id="蒙版" fill="#86909C" opacity="0" xlink:href="#path-1"></use>
                <g id="预览-关闭_preview-close" mask="url(#mask-2)" fill="#86909C" fill-rule="nonzero">
                    <g transform="translate(1.250000, 5.833162)" id="形状结合">
                        <path d="M16.6347608,0.0943224215 C17.043,0.306829133 17.2016725,0.810043138 16.9891658,1.21828236 C16.6726016,1.82642287 16.2016472,2.38472148 15.6020567,2.87610894 L15.435,3.006 L17.2601973,4.83191594 C17.5856342,5.15735285 17.5856342,5.68499033 17.2601973,6.01042724 C16.959794,6.31083054 16.4871015,6.33393849 16.1601921,6.07975108 L16.081686,6.01042724 L13.9694219,3.89866462 C13.3119904,4.21273 12.5871035,4.46518631 11.8161381,4.64876909 L12.4915895,7.17091063 C12.610705,7.61546645 12.3468834,8.0724123 11.9023276,8.19152776 C11.4895258,8.30213497 11.0660407,8.08255672 10.9122785,7.6946878 L10.8817105,7.60226587 L10.1652818,4.92763078 C9.70215227,4.97556181 9.22912224,5.00017159 8.74998333,5.00017159 C8.26741773,5.00017159 7.79104863,4.97520854 7.32474961,4.92659887 L6.60817354,7.6023466 C6.48905951,8.0469028 6.03211452,8.31072581 5.58755832,8.19161179 C5.17475613,8.08100591 4.91779022,7.679107 4.97855629,7.26632061 L4.99829313,7.17099657 L5.67486815,4.6466326 C4.90802804,4.46341701 4.18689882,4.21202809 3.53254515,3.89962457 L1.42259107,6.01038349 C1.09715531,6.33582155 0.569517826,6.33582341 0.244079766,6.01038765 C-0.0563245978,5.70998542 -0.0794342152,5.23729295 0.174752038,4.91038271 L0.244075599,4.83187635 L2.06622292,3.00973126 C2.00913619,2.96583122 1.95302365,2.92129247 1.89791158,2.87612392 C1.298326,2.38474048 0.827386398,1.82644466 0.5108058,1.2182919 C0.29829382,0.810055421 0.456959875,0.306839368 0.865196354,0.0943273874 C1.24427308,-0.103005166 1.70524547,0.0197086485 1.93931359,0.365102969 L1.98916087,0.448717941 C2.19639444,0.846814577 2.5217353,1.23250404 2.95436968,1.58706455 C4.26952076,2.6649312 6.40762185,3.33350492 8.74998333,3.33350492 C11.0923461,3.33350492 13.2304455,2.66493043 14.5455949,1.58705259 C14.9782391,1.23248406 15.3035902,0.846792673 15.5108008,0.448727481 C15.7233075,0.0404882594 16.2265216,-0.11818429 16.6347608,0.0943224215 Z"></path>
                    </g>
                </g>
            </g>
        </g>
    </g>
</svg>